<?xml version="1.0" encoding="utf-8"?>
<svg version="1.1" xmlns="http://www.w3.org/2000/svg" xmlns:xlink="http://www.w3.org/1999/xlink" x="0px" y="0px"
	 viewBox="0 0 400 147">
<g>
	<path fill="#000" d="M0,73.5V147c99.7,0,300.3,0,400,0c0-36.6,0-110.4,0-147C300.3,0,99.7,0,0,0V73.5 M206.5,1.6
		c63.5,3,128.9,5.7,191.9,8.5c-1.4,20.2,3.4,90.9-2.7,96.6c-7.4,7.8-27.9,14.3-27.9,14.3c-53.7,15.4-111.8,16.4-167.5,24.5
		c-21.6-3.7-44.5-5.1-65.9-7.5c-35.9-6.7-107.5-5-132.7-35.5c-0.1,6.4-0.4-78.6-0.2-92.3C69.5,7.4,137.6,3.4,206.5,1.6"/>
</g>
</svg>
