<?xml version="1.0" encoding="utf-8"?>
<!-- Generator: Adobe Illustrator 25.0.1, SVG Export Plug-In . SVG Version: 6.00 Build 0)  -->
<svg version="1.1" id="Calque_1" xmlns="http://www.w3.org/2000/svg" xmlns:xlink="http://www.w3.org/1999/xlink" x="0px" y="0px"
	 viewBox="0 0 356.1 131.2" style="enable-background:new 0 0 356.1 131.2;" xml:space="preserve">
<style type="text/css">
	.st0{display:none;}
	.st1{display:inline;fill:#00DF45;}
	.st2{fill:#FFC100;}
	.st3{display:inline;fill:#FFC100;}
	.st4{fill:#00DF45;}
</style>
<g class="st0">
	<rect id="Background" class="st1" width="356.1" height="131.2"/>
	<polyline class="st2" points="178.2,129.7 25.7,111 1.5,91.3 1.5,9.2 178.2,1.5 178,1.5 354.4,9.2 354.4,91.3 330.2,111 178,129.7 
			"/>
	<path id="Helmet" class="st3" d="M178.3,129.7c-22.6-5.6-166.7-10.4-176.7-38.4c0,0,0-82.1,0-82.1s176.7-7.7,176.7-7.7
		c-1-0.1,176.4,7.8,176.2,7.7c0,0,0,82.1,0,82.1c-9.6,27.8-154.1,33.2-176.4,38.4"/>
</g>
<rect id="Background_1_" class="st4" width="356.1" height="131.2"/>
<path id="Helmet_1_" class="st2" d="M178.3,129.7c-22.6-5.6-166.7-10.4-176.7-38.4c0,0,0-82.1,0-82.1s176.7-7.7,176.7-7.7
	c-1-0.1,176.4,7.8,176.2,7.7c0,0,0,82.1,0,82.1c-9.6,27.8-154.1,33.2-176.4,38.4"/>
</svg>
